<svg xmlns="http://www.w3.org/2000/svg" width="374.016" height="374.016" viewBox="0 0 280.512 280.512"><defs><style>*{stroke-linejoin:round;stroke-linecap:butt}</style></defs><g id="figure_1"><g id="axes_1"><path id="patch_2" d="M140.256 273.312c35.287 0 69.133-14.02 94.085-38.971a133.06 133.06 0 0 0 38.971-94.085c0-35.287-14.02-69.133-38.971-94.085A133.06 133.06 0 0 0 140.256 7.2a133.06 133.06 0 0 0-94.085 38.971A133.06 133.06 0 0 0 7.2 140.256c0 35.287 14.02 69.133 38.971 94.085a133.06 133.06 0 0 0 94.085 38.971z" clip-path="url(#p95aee6ae2f)" style="fill:#00f;stroke:#fff;stroke-linejoin:miter"/><path id="line2d_1" d="M33.811 273.312V7.2" clip-path="url(#pad6a857a5d)" style="fill:none;stroke:#fff;stroke-opacity:.6;stroke-width:15;stroke-linecap:square"/><path id="line2d_2" d="M7.2 246.7h266.112" clip-path="url(#pad6a857a5d)" style="fill:none;stroke:#fff;stroke-opacity:.6;stroke-width:15;stroke-linecap:square"/><path id="line2d_3" d="M87.034 273.312V7.2" clip-path="url(#pad6a857a5d)" style="fill:none;stroke:#fff;stroke-opacity:.6;stroke-width:15;stroke-linecap:square"/><path id="line2d_4" d="M7.2 193.478h266.112" clip-path="url(#pad6a857a5d)" style="fill:none;stroke:#fff;stroke-opacity:.6;stroke-width:15;stroke-linecap:square"/><path id="line2d_5" d="M140.256 273.312V7.2" clip-path="url(#pad6a857a5d)" style="fill:none;stroke:#fff;stroke-opacity:.6;stroke-width:15;stroke-linecap:square"/><path id="line2d_6" d="M7.2 140.256h266.112" clip-path="url(#pad6a857a5d)" style="fill:none;stroke:#fff;stroke-opacity:.6;stroke-width:15;stroke-linecap:square"/><path id="line2d_7" d="M193.478 273.312V7.2" clip-path="url(#pad6a857a5d)" style="fill:none;stroke:#fff;stroke-opacity:.6;stroke-width:15;stroke-linecap:square"/><path id="line2d_8" d="M7.2 87.034h266.112" clip-path="url(#pad6a857a5d)" style="fill:none;stroke:#fff;stroke-opacity:.6;stroke-width:15;stroke-linecap:square"/><path id="line2d_9" d="M246.7 273.312V7.2" clip-path="url(#pad6a857a5d)" style="fill:none;stroke:#fff;stroke-opacity:.6;stroke-width:15;stroke-linecap:square"/><path id="line2d_10" d="M7.2 33.811h266.112" clip-path="url(#pad6a857a5d)" style="fill:none;stroke:#fff;stroke-opacity:.6;stroke-width:15;stroke-linecap:square"/></g></g><defs><clipPath id="p95aee6ae2f"><path d="M7.2 7.2h266.112v266.112H7.2z"/></clipPath><clipPath id="pad6a857a5d"><path d="M140.256 273.312c35.287 0 69.133-14.02 94.085-38.971a133.06 133.06 0 0 0 38.971-94.085c0-35.287-14.02-69.133-38.971-94.085A133.06 133.06 0 0 0 140.256 7.2a133.06 133.06 0 0 0-94.085 38.971A133.06 133.06 0 0 0 7.2 140.256c0 35.287 14.02 69.133 38.971 94.085a133.06 133.06 0 0 0 94.085 38.971"/></clipPath></defs></svg>