<svg xmlns="http://www.w3.org/2000/svg" width="374.016" height="374.016" viewBox="0 0 280.512 280.512"><defs><style>*{stroke-linejoin:round;stroke-linecap:butt}</style></defs><g id="figure_1"><g id="axes_1"><path id="patch_2" d="M140.256 273.312c35.287 0 69.133-14.02 94.085-38.971a133.06 133.06 0 0 0 38.971-94.085c0-35.287-14.02-69.133-38.971-94.085A133.06 133.06 0 0 0 140.256 7.2a133.06 133.06 0 0 0-94.085 38.971A133.06 133.06 0 0 0 7.2 140.256c0 35.287 14.02 69.133 38.971 94.085a133.06 133.06 0 0 0 94.085 38.971z" clip-path="url(#p493d4e6d83)" style="fill:#ff7f00;stroke:#fff;stroke-linejoin:miter"/><path id="patch_3" d="M33.811 260.006a13.306 13.306 0 1 0 0-26.612 13.306 13.306 0 0 0 0 26.612" clip-path="url(#p252c347b83)" style="fill:#fff;opacity:.6"/><path id="patch_4" d="M33.811 206.784a13.306 13.306 0 1 0 0-26.612 13.306 13.306 0 0 0 0 26.612" clip-path="url(#p252c347b83)" style="fill:#fff;opacity:.6"/><path id="patch_5" d="M33.811 153.562a13.306 13.306 0 1 0 0-26.613 13.306 13.306 0 0 0 0 26.613" clip-path="url(#p252c347b83)" style="fill:#fff;opacity:.6"/><path id="patch_6" d="M33.811 100.34a13.306 13.306 0 1 0 0-26.613 13.306 13.306 0 0 0 0 26.612" clip-path="url(#p252c347b83)" style="fill:#fff;opacity:.6"/><path id="patch_7" d="M33.811 47.117a13.306 13.306 0 1 0 0-26.613 13.306 13.306 0 0 0 0 26.613" clip-path="url(#p252c347b83)" style="fill:#fff;opacity:.6"/><path id="patch_8" d="M87.034 260.006a13.306 13.306 0 1 0 0-26.612 13.306 13.306 0 0 0 0 26.612" clip-path="url(#p252c347b83)" style="fill:#fff;opacity:.6"/><path id="patch_9" d="M87.034 206.784a13.306 13.306 0 1 0 0-26.612 13.306 13.306 0 0 0 0 26.612" clip-path="url(#p252c347b83)" style="fill:#fff;opacity:.6"/><path id="patch_10" d="M87.034 153.562a13.306 13.306 0 1 0 0-26.613 13.306 13.306 0 0 0 0 26.613" clip-path="url(#p252c347b83)" style="fill:#fff;opacity:.6"/><path id="patch_11" d="M87.034 100.34a13.306 13.306 0 1 0 0-26.613 13.306 13.306 0 0 0 0 26.612" clip-path="url(#p252c347b83)" style="fill:#fff;opacity:.6"/><path id="patch_12" d="M87.034 47.117a13.306 13.306 0 1 0 0-26.613 13.306 13.306 0 0 0 0 26.613" clip-path="url(#p252c347b83)" style="fill:#fff;opacity:.6"/><path id="patch_13" d="M140.256 260.006a13.306 13.306 0 1 0 0-26.612 13.306 13.306 0 0 0 0 26.612" clip-path="url(#p252c347b83)" style="fill:#fff;opacity:.6"/><path id="patch_14" d="M140.256 206.784a13.306 13.306 0 1 0 0-26.612 13.306 13.306 0 0 0 0 26.612" clip-path="url(#p252c347b83)" style="fill:#fff;opacity:.6"/><path id="patch_15" d="M140.256 153.562a13.306 13.306 0 1 0 0-26.613 13.306 13.306 0 0 0 0 26.613" clip-path="url(#p252c347b83)" style="fill:#fff;opacity:.6"/><path id="patch_16" d="M140.256 100.34a13.306 13.306 0 1 0 0-26.613 13.306 13.306 0 0 0 0 26.612" clip-path="url(#p252c347b83)" style="fill:#fff;opacity:.6"/><path id="patch_17" d="M140.256 47.117a13.306 13.306 0 1 0 0-26.613 13.306 13.306 0 0 0 0 26.613" clip-path="url(#p252c347b83)" style="fill:#fff;opacity:.6"/><path id="patch_18" d="M193.478 260.006a13.306 13.306 0 1 0 0-26.612 13.306 13.306 0 0 0 0 26.612" clip-path="url(#p252c347b83)" style="fill:#fff;opacity:.6"/><path id="patch_19" d="M193.478 206.784a13.306 13.306 0 1 0 0-26.612 13.306 13.306 0 0 0 0 26.612" clip-path="url(#p252c347b83)" style="fill:#fff;opacity:.6"/><path id="patch_20" d="M193.478 153.562a13.306 13.306 0 1 0 0-26.613 13.306 13.306 0 0 0 0 26.613" clip-path="url(#p252c347b83)" style="fill:#fff;opacity:.6"/><path id="patch_21" d="M193.478 100.34a13.306 13.306 0 1 0 0-26.613 13.306 13.306 0 0 0 0 26.612" clip-path="url(#p252c347b83)" style="fill:#fff;opacity:.6"/><path id="patch_22" d="M193.478 47.117a13.306 13.306 0 1 0 0-26.613 13.306 13.306 0 0 0 0 26.613" clip-path="url(#p252c347b83)" style="fill:#fff;opacity:.6"/><path id="patch_23" d="M246.7 260.006a13.306 13.306 0 1 0 0-26.612 13.306 13.306 0 0 0 0 26.612" clip-path="url(#p252c347b83)" style="fill:#fff;opacity:.6"/><path id="patch_24" d="M246.7 206.784a13.306 13.306 0 1 0 0-26.612 13.306 13.306 0 0 0 0 26.612" clip-path="url(#p252c347b83)" style="fill:#fff;opacity:.6"/><path id="patch_25" d="M246.7 153.562a13.306 13.306 0 1 0 0-26.613 13.306 13.306 0 0 0 0 26.613" clip-path="url(#p252c347b83)" style="fill:#fff;opacity:.6"/><path id="patch_26" d="M246.7 100.34a13.306 13.306 0 1 0 0-26.613 13.306 13.306 0 0 0 0 26.612" clip-path="url(#p252c347b83)" style="fill:#fff;opacity:.6"/><path id="patch_27" d="M246.7 47.117a13.306 13.306 0 1 0 0-26.613 13.306 13.306 0 0 0 0 26.613" clip-path="url(#p252c347b83)" style="fill:#fff;opacity:.6"/></g></g><defs><clipPath id="p493d4e6d83"><path d="M7.2 7.2h266.112v266.112H7.2z"/></clipPath><clipPath id="p252c347b83"><path d="M140.256 273.312c35.287 0 69.133-14.02 94.085-38.971a133.06 133.06 0 0 0 38.971-94.085c0-35.287-14.02-69.133-38.971-94.085A133.06 133.06 0 0 0 140.256 7.2a133.06 133.06 0 0 0-94.085 38.971A133.06 133.06 0 0 0 7.2 140.256c0 35.287 14.02 69.133 38.971 94.085a133.06 133.06 0 0 0 94.085 38.971"/></clipPath></defs></svg>