<svg xmlns="http://www.w3.org/2000/svg" width="374.016" height="374.016" viewBox="0 0 280.512 280.512"><defs><style>*{stroke-linejoin:round;stroke-linecap:butt}</style></defs><g id="figure_1"><g id="axes_1"><path id="patch_2" d="M140.256 273.312c35.287 0 69.133-14.02 94.085-38.971a133.06 133.06 0 0 0 38.971-94.085c0-35.287-14.02-69.133-38.971-94.085A133.06 133.06 0 0 0 140.256 7.2a133.06 133.06 0 0 0-94.085 38.971A133.06 133.06 0 0 0 7.2 140.256c0 35.287 14.02 69.133 38.971 94.085a133.06 133.06 0 0 0 94.085 38.971z" clip-path="url(#p7cf8700fe5)" style="fill:#8b00ff;stroke:#fff;stroke-linejoin:miter"/><path id="line2d_1" d="M-1 148.456 140.256 7.2" clip-path="url(#p0a23bf3a8d)" style="fill:none;stroke:#fff;stroke-opacity:.6;stroke-width:20;stroke-linecap:square"/><path id="line2d_2" d="M-1 207.592 199.392 7.2" clip-path="url(#p0a23bf3a8d)" style="fill:none;stroke:#fff;stroke-opacity:.6;stroke-width:20;stroke-linecap:square"/><path id="line2d_3" d="M-1 266.728 258.528 7.2" clip-path="url(#p0a23bf3a8d)" style="fill:none;stroke:#fff;stroke-opacity:.6;stroke-width:20;stroke-linecap:square"/><path id="line2d_4" d="m51.552 273.312 229.96-229.96" clip-path="url(#p0a23bf3a8d)" style="fill:none;stroke:#fff;stroke-opacity:.6;stroke-width:20;stroke-linecap:square"/><path id="line2d_5" d="m110.688 273.312 170.824-170.824" clip-path="url(#p0a23bf3a8d)" style="fill:none;stroke:#fff;stroke-opacity:.6;stroke-width:20;stroke-linecap:square"/><path id="line2d_6" d="m169.824 273.312 111.688-111.688" clip-path="url(#p0a23bf3a8d)" style="fill:none;stroke:#fff;stroke-opacity:.6;stroke-width:20;stroke-linecap:square"/><path id="line2d_7" d="m228.96 273.312 52.552-52.552" clip-path="url(#p0a23bf3a8d)" style="fill:none;stroke:#fff;stroke-opacity:.6;stroke-width:20;stroke-linecap:square"/></g></g><defs><clipPath id="p7cf8700fe5"><path d="M7.2 7.2h266.112v266.112H7.2z"/></clipPath><clipPath id="p0a23bf3a8d"><path d="M140.256 273.312c35.287 0 69.133-14.02 94.085-38.971a133.06 133.06 0 0 0 38.971-94.085c0-35.287-14.02-69.133-38.971-94.085A133.06 133.06 0 0 0 140.256 7.2a133.06 133.06 0 0 0-94.085 38.971A133.06 133.06 0 0 0 7.2 140.256c0 35.287 14.02 69.133 38.971 94.085a133.06 133.06 0 0 0 94.085 38.971"/></clipPath></defs></svg>