<svg xmlns="http://www.w3.org/2000/svg" width="374.016" height="374.016" viewBox="0 0 280.512 280.512"><defs><style>*{stroke-linejoin:round;stroke-linecap:butt}</style></defs><g id="figure_1"><g id="axes_1"><path id="patch_2" d="M140.256 273.312c35.287 0 69.133-14.02 94.085-38.971a133.06 133.06 0 0 0 38.971-94.085c0-35.287-14.02-69.133-38.971-94.085A133.06 133.06 0 0 0 140.256 7.2a133.06 133.06 0 0 0-94.085 38.971A133.06 133.06 0 0 0 7.2 140.256c0 35.287 14.02 69.133 38.971 94.085a133.06 133.06 0 0 0 94.085 38.971z" clip-path="url(#p786065ad7f)" style="fill:#cc0;stroke:#fff;stroke-linejoin:miter"/></g></g><defs><clipPath id="p786065ad7f"><path d="M7.2 7.2h266.112v266.112H7.2z"/></clipPath></defs></svg>